<mxfile host="Electron" agent="Mozilla/5.0 (Macintosh; Intel Mac OS X 10_15_7) AppleWebKit/537.36 (KHTML, like Gecko) draw.io/24.7.17 Chrome/128.0.6613.36 Electron/32.0.1 Safari/537.36" version="24.7.17">
  <diagram name="Pagina-1" id="n_oPjpJ614BbLWJxQ1KJ">
    <mxGraphModel dx="3202" dy="1722" grid="1" gridSize="10" guides="1" tooltips="1" connect="1" arrows="1" fold="1" page="1" pageScale="1" pageWidth="827" pageHeight="1169" math="0" shadow="0">
      <root>
        <mxCell id="0" />
        <mxCell id="1" parent="0" />
        <mxCell id="scet_bAQvePoZMAyS06o-300" value="" style="group" vertex="1" connectable="0" parent="1">
          <mxGeometry x="-39.9999999999998" y="500" width="88.9999999999998" height="120" as="geometry" />
        </mxCell>
        <mxCell id="scet_bAQvePoZMAyS06o-6" value="" style="endArrow=none;html=1;rounded=0;fillColor=#e3c800;strokeColor=#B09500;" edge="1" parent="scet_bAQvePoZMAyS06o-300" source="scet_bAQvePoZMAyS06o-229">
          <mxGeometry width="50" height="50" relative="1" as="geometry">
            <mxPoint x="57.9999999999998" y="110" as="sourcePoint" />
            <mxPoint x="87.9999999999998" y="110" as="targetPoint" />
            <Array as="points">
              <mxPoint x="68.9999999999998" y="110" />
            </Array>
          </mxGeometry>
        </mxCell>
        <mxCell id="scet_bAQvePoZMAyS06o-8" value="" style="endArrow=none;html=1;rounded=0;fillColor=#60a917;strokeColor=#2D7600;" edge="1" parent="scet_bAQvePoZMAyS06o-300" source="scet_bAQvePoZMAyS06o-9">
          <mxGeometry width="50" height="50" relative="1" as="geometry">
            <mxPoint x="57.9999999999998" y="61" as="sourcePoint" />
            <mxPoint x="87.9999999999998" y="61" as="targetPoint" />
          </mxGeometry>
        </mxCell>
        <mxCell id="scet_bAQvePoZMAyS06o-9" value="" style="shape=waypoint;sketch=0;fillStyle=solid;size=6;pointerEvents=1;points=[];fillColor=#60a917;resizable=0;rotatable=0;perimeter=centerPerimeter;snapToPoint=1;strokeColor=#2D7600;rotation=90;container=0;fontColor=#ffffff;" vertex="1" parent="scet_bAQvePoZMAyS06o-300">
          <mxGeometry x="29.9999999999998" y="51" width="20" height="20" as="geometry" />
        </mxCell>
        <mxCell id="scet_bAQvePoZMAyS06o-10" value="" style="endArrow=none;html=1;rounded=0;fillColor=#e51400;strokeColor=#B20000;" edge="1" parent="scet_bAQvePoZMAyS06o-300" source="scet_bAQvePoZMAyS06o-228">
          <mxGeometry width="50" height="50" relative="1" as="geometry">
            <mxPoint x="58.9999999999998" y="10" as="sourcePoint" />
            <mxPoint x="88.9999999999998" y="10" as="targetPoint" />
          </mxGeometry>
        </mxCell>
        <mxCell id="scet_bAQvePoZMAyS06o-228" value="" style="shape=waypoint;sketch=0;fillStyle=solid;size=6;pointerEvents=1;points=[];fillColor=#e51400;resizable=0;rotatable=0;perimeter=centerPerimeter;snapToPoint=1;strokeColor=#B20000;rotation=90;container=0;fontColor=#ffffff;" vertex="1" parent="scet_bAQvePoZMAyS06o-300">
          <mxGeometry x="30.9999999999998" width="20" height="20" as="geometry" />
        </mxCell>
        <mxCell id="scet_bAQvePoZMAyS06o-229" value="" style="shape=waypoint;sketch=0;fillStyle=solid;size=6;pointerEvents=1;points=[];fillColor=#e3c800;resizable=0;rotatable=0;perimeter=centerPerimeter;snapToPoint=1;strokeColor=#B09500;rotation=90;container=0;fontColor=#000000;" vertex="1" parent="scet_bAQvePoZMAyS06o-300">
          <mxGeometry x="29.9999999999998" y="100" width="20" height="20" as="geometry" />
        </mxCell>
        <mxCell id="scet_bAQvePoZMAyS06o-231" value="&lt;font style=&quot;font-size: 13px;&quot;&gt;clk&lt;/font&gt;" style="text;html=1;align=center;verticalAlign=middle;whiteSpace=wrap;rounded=0;container=0;" vertex="1" parent="scet_bAQvePoZMAyS06o-300">
          <mxGeometry y="1" width="30" height="20" as="geometry" />
        </mxCell>
        <mxCell id="scet_bAQvePoZMAyS06o-232" value="&lt;font style=&quot;font-size: 13px;&quot;&gt;en&lt;/font&gt;" style="text;html=1;align=center;verticalAlign=middle;whiteSpace=wrap;rounded=0;container=0;" vertex="1" parent="scet_bAQvePoZMAyS06o-300">
          <mxGeometry x="1" y="50" width="30" height="20" as="geometry" />
        </mxCell>
        <mxCell id="scet_bAQvePoZMAyS06o-233" value="&lt;font style=&quot;font-size: 13px;&quot;&gt;rst&lt;/font&gt;" style="text;html=1;align=center;verticalAlign=middle;whiteSpace=wrap;rounded=0;container=0;" vertex="1" parent="scet_bAQvePoZMAyS06o-300">
          <mxGeometry x="1" y="100" width="30" height="20" as="geometry" />
        </mxCell>
        <mxCell id="scet_bAQvePoZMAyS06o-299" value="" style="group" vertex="1" connectable="0" parent="1">
          <mxGeometry x="1510" y="530" width="127" height="50" as="geometry" />
        </mxCell>
        <mxCell id="scet_bAQvePoZMAyS06o-241" value="&lt;font style=&quot;font-size: 10px;&quot;&gt;3&lt;/font&gt;" style="text;html=1;align=center;verticalAlign=middle;whiteSpace=wrap;rounded=0;container=0;" vertex="1" parent="scet_bAQvePoZMAyS06o-299">
          <mxGeometry x="67" y="30" width="40" height="20" as="geometry" />
        </mxCell>
        <mxCell id="scet_bAQvePoZMAyS06o-1" value="" style="endArrow=none;html=1;rounded=0;fillColor=#0050ef;strokeColor=#001DBC;entryX=1;entryY=0.25;entryDx=0;entryDy=0;exitX=0.414;exitY=0.976;exitDx=0;exitDy=0;exitPerimeter=0;" edge="1" parent="scet_bAQvePoZMAyS06o-299">
          <mxGeometry width="50" height="50" relative="1" as="geometry">
            <mxPoint x="116" y="30" as="sourcePoint" />
            <mxPoint y="30" as="targetPoint" />
          </mxGeometry>
        </mxCell>
        <mxCell id="scet_bAQvePoZMAyS06o-2" value="//" style="edgeLabel;html=1;align=center;verticalAlign=middle;resizable=0;points=[];" vertex="1" connectable="0" parent="scet_bAQvePoZMAyS06o-1">
          <mxGeometry x="-0.4386" relative="1" as="geometry">
            <mxPoint as="offset" />
          </mxGeometry>
        </mxCell>
        <mxCell id="scet_bAQvePoZMAyS06o-3" value="" style="shape=waypoint;sketch=0;fillStyle=solid;size=6;pointerEvents=1;points=[];fillColor=#0050ef;resizable=0;rotatable=0;perimeter=centerPerimeter;snapToPoint=1;strokeColor=#001DBC;rotation=-90;container=0;fontColor=#ffffff;" vertex="1" parent="scet_bAQvePoZMAyS06o-299">
          <mxGeometry x="107" y="20" width="20" height="20" as="geometry" />
        </mxCell>
        <mxCell id="scet_bAQvePoZMAyS06o-240" value="&lt;font style=&quot;font-size: 13px;&quot;&gt;counter&lt;/font&gt;" style="text;html=1;align=center;verticalAlign=middle;whiteSpace=wrap;rounded=0;container=0;" vertex="1" parent="scet_bAQvePoZMAyS06o-299">
          <mxGeometry x="67" width="40" height="20" as="geometry" />
        </mxCell>
        <mxCell id="scet_bAQvePoZMAyS06o-11" value="" style="rounded=0;whiteSpace=wrap;html=1;movable=1;resizable=1;rotatable=1;deletable=1;editable=1;locked=0;connectable=1;" vertex="1" parent="1">
          <mxGeometry x="41" y="320" width="1519" height="520" as="geometry" />
        </mxCell>
        <mxCell id="scet_bAQvePoZMAyS06o-16" value="" style="shape=waypoint;sketch=0;fillStyle=solid;size=6;pointerEvents=1;points=[];fillColor=#60a917;resizable=0;rotatable=0;perimeter=centerPerimeter;snapToPoint=1;strokeColor=#2D7600;rotation=-90;container=0;fontColor=#ffffff;" vertex="1" parent="1">
          <mxGeometry x="1141" y="440.25" width="20" height="20" as="geometry" />
        </mxCell>
        <mxCell id="scet_bAQvePoZMAyS06o-17" value="" style="endArrow=none;html=1;rounded=0;fillColor=#60a917;strokeColor=#2D7600;" edge="1" parent="1" source="scet_bAQvePoZMAyS06o-16">
          <mxGeometry width="50" height="50" relative="1" as="geometry">
            <mxPoint x="1169" y="450.25" as="sourcePoint" />
            <mxPoint x="1199" y="450.25" as="targetPoint" />
          </mxGeometry>
        </mxCell>
        <mxCell id="scet_bAQvePoZMAyS06o-22" value="" style="endArrow=none;html=1;rounded=0;fillColor=#e51400;strokeColor=#B20000;" edge="1" parent="1" source="scet_bAQvePoZMAyS06o-23">
          <mxGeometry width="50" height="50" relative="1" as="geometry">
            <mxPoint x="1169" y="419" as="sourcePoint" />
            <mxPoint x="1199" y="419" as="targetPoint" />
          </mxGeometry>
        </mxCell>
        <mxCell id="scet_bAQvePoZMAyS06o-23" value="" style="shape=waypoint;sketch=0;fillStyle=solid;size=6;pointerEvents=1;points=[];fillColor=#e51400;resizable=0;rotatable=0;perimeter=centerPerimeter;snapToPoint=1;strokeColor=#B20000;rotation=90;container=0;fontColor=#ffffff;" vertex="1" parent="1">
          <mxGeometry x="1141" y="409" width="20" height="20" as="geometry" />
        </mxCell>
        <mxCell id="scet_bAQvePoZMAyS06o-28" value="" style="endArrow=none;html=1;rounded=0;fillColor=#e51400;strokeColor=#B20000;" edge="1" parent="1" source="scet_bAQvePoZMAyS06o-29">
          <mxGeometry width="50" height="50" relative="1" as="geometry">
            <mxPoint x="1169" y="419" as="sourcePoint" />
            <mxPoint x="1199" y="419" as="targetPoint" />
          </mxGeometry>
        </mxCell>
        <mxCell id="scet_bAQvePoZMAyS06o-29" value="" style="shape=waypoint;sketch=0;fillStyle=solid;size=6;pointerEvents=1;points=[];fillColor=#e51400;resizable=0;rotatable=0;perimeter=centerPerimeter;snapToPoint=1;strokeColor=#B20000;rotation=90;container=0;fontColor=#ffffff;" vertex="1" parent="1">
          <mxGeometry x="1141" y="409" width="20" height="20" as="geometry" />
        </mxCell>
        <mxCell id="scet_bAQvePoZMAyS06o-30" value="" style="endArrow=none;html=1;rounded=0;fillColor=#60a917;strokeColor=#2D7600;" edge="1" parent="1" source="scet_bAQvePoZMAyS06o-98">
          <mxGeometry width="50" height="50" relative="1" as="geometry">
            <mxPoint x="669" y="450.25" as="sourcePoint" />
            <mxPoint x="699" y="450.25" as="targetPoint" />
          </mxGeometry>
        </mxCell>
        <mxCell id="scet_bAQvePoZMAyS06o-31" value="" style="endArrow=none;html=1;rounded=0;fillColor=#e51400;strokeColor=#B20000;" edge="1" parent="1" source="scet_bAQvePoZMAyS06o-32">
          <mxGeometry width="50" height="50" relative="1" as="geometry">
            <mxPoint x="669" y="419" as="sourcePoint" />
            <mxPoint x="699" y="419" as="targetPoint" />
          </mxGeometry>
        </mxCell>
        <mxCell id="scet_bAQvePoZMAyS06o-32" value="" style="shape=waypoint;sketch=0;fillStyle=solid;size=6;pointerEvents=1;points=[];fillColor=#e51400;resizable=0;rotatable=0;perimeter=centerPerimeter;snapToPoint=1;strokeColor=#B20000;rotation=90;container=0;fontColor=#ffffff;" vertex="1" parent="1">
          <mxGeometry x="641" y="409" width="20" height="20" as="geometry" />
        </mxCell>
        <mxCell id="scet_bAQvePoZMAyS06o-35" value="" style="endArrow=none;html=1;rounded=0;fillColor=#e51400;strokeColor=#B20000;" edge="1" parent="1" source="scet_bAQvePoZMAyS06o-71">
          <mxGeometry width="50" height="50" relative="1" as="geometry">
            <mxPoint x="169" y="419" as="sourcePoint" />
            <mxPoint x="199" y="419" as="targetPoint" />
          </mxGeometry>
        </mxCell>
        <mxCell id="scet_bAQvePoZMAyS06o-36" value="" style="verticalLabelPosition=bottom;shadow=0;dashed=0;align=center;html=1;verticalAlign=top;shape=mxgraph.electrical.logic_gates.logic_gate;operation=xor;aspect=fixed;rotation=-90;container=0;" vertex="1" parent="1">
          <mxGeometry x="606.67" y="676.67" width="66.67" height="40" as="geometry" />
        </mxCell>
        <mxCell id="scet_bAQvePoZMAyS06o-37" value="" style="verticalLabelPosition=bottom;shadow=0;dashed=0;align=center;html=1;verticalAlign=top;shape=mxgraph.electrical.logic_gates.logic_gate;operation=xor;aspect=fixed;rotation=-90;container=0;" vertex="1" parent="1">
          <mxGeometry x="1103.3300000000002" y="676.67" width="70" height="40" as="geometry" />
        </mxCell>
        <mxCell id="scet_bAQvePoZMAyS06o-38" value="" style="shape=or;whiteSpace=wrap;html=1;aspect=fixed;direction=north;rotation=90;container=0;" vertex="1" parent="1">
          <mxGeometry x="990.0000000000002" y="760" width="50" height="37.5" as="geometry" />
        </mxCell>
        <mxCell id="scet_bAQvePoZMAyS06o-39" value="" style="endArrow=none;html=1;rounded=0;exitX=0;exitY=0.75;exitDx=0;exitDy=0;exitPerimeter=0;" edge="1" parent="1" source="scet_bAQvePoZMAyS06o-38">
          <mxGeometry width="50" height="50" relative="1" as="geometry">
            <mxPoint x="990" y="790" as="sourcePoint" />
            <mxPoint x="520" y="730" as="targetPoint" />
            <Array as="points">
              <mxPoint x="520" y="790" />
            </Array>
          </mxGeometry>
        </mxCell>
        <mxCell id="scet_bAQvePoZMAyS06o-40" value="" style="endArrow=none;html=1;rounded=0;entryX=0;entryY=0.25;entryDx=0;entryDy=0;entryPerimeter=0;" edge="1" parent="1" target="scet_bAQvePoZMAyS06o-38">
          <mxGeometry width="50" height="50" relative="1" as="geometry">
            <mxPoint x="880" y="730" as="sourcePoint" />
            <mxPoint x="976.2500000000002" y="766.25" as="targetPoint" />
            <Array as="points">
              <mxPoint x="880" y="766" />
            </Array>
          </mxGeometry>
        </mxCell>
        <mxCell id="scet_bAQvePoZMAyS06o-41" value="" style="endArrow=none;html=1;rounded=0;exitX=0.995;exitY=0.527;exitDx=0;exitDy=0;exitPerimeter=0;entryX=0;entryY=0.25;entryDx=0;entryDy=0;entryPerimeter=0;" edge="1" parent="1" source="scet_bAQvePoZMAyS06o-38" target="scet_bAQvePoZMAyS06o-37">
          <mxGeometry width="50" height="50" relative="1" as="geometry">
            <mxPoint x="1080" y="780" as="sourcePoint" />
            <mxPoint x="1130" y="780" as="targetPoint" />
            <Array as="points">
              <mxPoint x="1128" y="780" />
            </Array>
          </mxGeometry>
        </mxCell>
        <mxCell id="scet_bAQvePoZMAyS06o-42" value="" style="endArrow=none;html=1;rounded=0;exitX=0.999;exitY=0.626;exitDx=0;exitDy=0;exitPerimeter=0;" edge="1" parent="1" source="scet_bAQvePoZMAyS06o-54">
          <mxGeometry width="50" height="50" relative="1" as="geometry">
            <mxPoint x="310" y="520" as="sourcePoint" />
            <mxPoint x="360" y="500" as="targetPoint" />
          </mxGeometry>
        </mxCell>
        <mxCell id="scet_bAQvePoZMAyS06o-43" value="" style="endArrow=none;html=1;rounded=0;entryX=0.002;entryY=0.877;entryDx=0;entryDy=0;entryPerimeter=0;" edge="1" parent="1" target="scet_bAQvePoZMAyS06o-54">
          <mxGeometry width="50" height="50" relative="1" as="geometry">
            <mxPoint x="140" y="540" as="sourcePoint" />
            <mxPoint x="230" y="510" as="targetPoint" />
          </mxGeometry>
        </mxCell>
        <mxCell id="scet_bAQvePoZMAyS06o-52" value="" style="endArrow=none;html=1;rounded=0;" edge="1" parent="1">
          <mxGeometry width="50" height="50" relative="1" as="geometry">
            <mxPoint x="140" y="600" as="sourcePoint" />
            <mxPoint x="140" y="540" as="targetPoint" />
          </mxGeometry>
        </mxCell>
        <mxCell id="scet_bAQvePoZMAyS06o-53" value="" style="endArrow=none;html=1;rounded=0;" edge="1" parent="1">
          <mxGeometry width="50" height="50" relative="1" as="geometry">
            <mxPoint x="140" y="600" as="sourcePoint" />
            <mxPoint x="360" y="600" as="targetPoint" />
          </mxGeometry>
        </mxCell>
        <mxCell id="scet_bAQvePoZMAyS06o-56" value="&lt;font style=&quot;font-size: 13px;&quot;&gt;input&lt;/font&gt;" style="text;html=1;align=center;verticalAlign=middle;whiteSpace=wrap;rounded=0;container=0;" vertex="1" parent="1">
          <mxGeometry x="140.0000000000002" y="520" width="40" height="20" as="geometry" />
        </mxCell>
        <mxCell id="scet_bAQvePoZMAyS06o-57" value="&lt;font style=&quot;font-size: 13px;&quot;&gt;not_output&lt;/font&gt;" style="text;html=1;align=center;verticalAlign=middle;whiteSpace=wrap;rounded=0;container=0;" vertex="1" parent="1">
          <mxGeometry x="313.0000000000002" y="480" width="70" height="20" as="geometry" />
        </mxCell>
        <mxCell id="scet_bAQvePoZMAyS06o-58" value="&lt;font style=&quot;font-size: 13px;&quot;&gt;counter(0)&lt;/font&gt;" style="text;html=1;align=center;verticalAlign=middle;whiteSpace=wrap;rounded=0;container=0;" vertex="1" parent="1">
          <mxGeometry x="328.0000000000002" y="420" width="40" height="20" as="geometry" />
        </mxCell>
        <mxCell id="scet_bAQvePoZMAyS06o-59" value="" style="endArrow=none;html=1;rounded=0;" edge="1" parent="1">
          <mxGeometry width="50" height="50" relative="1" as="geometry">
            <mxPoint x="360" y="600" as="sourcePoint" />
            <mxPoint x="360" y="500" as="targetPoint" />
          </mxGeometry>
        </mxCell>
        <mxCell id="scet_bAQvePoZMAyS06o-70" value="" style="endArrow=none;html=1;rounded=0;exitX=0;exitY=0.25;exitDx=0;exitDy=0;exitPerimeter=0;" edge="1" parent="1" source="scet_bAQvePoZMAyS06o-36">
          <mxGeometry width="50" height="50" relative="1" as="geometry">
            <mxPoint x="350.88" y="490" as="sourcePoint" />
            <mxPoint x="400.88" y="440" as="targetPoint" />
            <Array as="points">
              <mxPoint x="401" y="730" />
            </Array>
          </mxGeometry>
        </mxCell>
        <mxCell id="scet_bAQvePoZMAyS06o-71" value="" style="shape=waypoint;sketch=0;fillStyle=solid;size=6;pointerEvents=1;points=[];fillColor=#e51400;resizable=0;rotatable=0;perimeter=centerPerimeter;snapToPoint=1;strokeColor=#B20000;rotation=90;container=0;fontColor=#ffffff;" vertex="1" parent="1">
          <mxGeometry x="141" y="409" width="20" height="20" as="geometry" />
        </mxCell>
        <mxCell id="scet_bAQvePoZMAyS06o-72" value="" style="endArrow=none;html=1;rounded=0;fillColor=#0050ef;strokeColor=#001DBC;entryX=1;entryY=0.25;entryDx=0;entryDy=0;exitX=0.414;exitY=0.976;exitDx=0;exitDy=0;exitPerimeter=0;" edge="1" parent="1">
          <mxGeometry width="50" height="50" relative="1" as="geometry">
            <mxPoint x="429" y="440" as="sourcePoint" />
            <mxPoint x="313.0000000000002" y="440" as="targetPoint" />
          </mxGeometry>
        </mxCell>
        <mxCell id="scet_bAQvePoZMAyS06o-73" value="" style="shape=waypoint;sketch=0;fillStyle=solid;size=6;pointerEvents=1;points=[];fillColor=#0050ef;resizable=0;rotatable=0;perimeter=centerPerimeter;snapToPoint=1;strokeColor=#001DBC;rotation=-90;container=0;fontColor=#ffffff;" vertex="1" parent="1">
          <mxGeometry x="420" y="430" width="20" height="20" as="geometry" />
        </mxCell>
        <mxCell id="scet_bAQvePoZMAyS06o-74" value="" style="endArrow=none;html=1;rounded=0;entryX=0.002;entryY=0.877;entryDx=0;entryDy=0;entryPerimeter=0;" edge="1" parent="1" target="scet_bAQvePoZMAyS06o-84">
          <mxGeometry width="50" height="50" relative="1" as="geometry">
            <mxPoint x="640" y="540" as="sourcePoint" />
            <mxPoint x="730" y="510" as="targetPoint" />
          </mxGeometry>
        </mxCell>
        <mxCell id="scet_bAQvePoZMAyS06o-83" value="" style="endArrow=none;html=1;rounded=0;exitX=1;exitY=0.5;exitDx=0;exitDy=0;exitPerimeter=0;" edge="1" parent="1" source="scet_bAQvePoZMAyS06o-36">
          <mxGeometry width="50" height="50" relative="1" as="geometry">
            <mxPoint x="640" y="660" as="sourcePoint" />
            <mxPoint x="640" y="540" as="targetPoint" />
          </mxGeometry>
        </mxCell>
        <mxCell id="scet_bAQvePoZMAyS06o-85" value="&lt;font style=&quot;font-size: 13px;&quot;&gt;input&lt;/font&gt;" style="text;html=1;align=center;verticalAlign=middle;whiteSpace=wrap;rounded=0;container=0;" vertex="1" parent="1">
          <mxGeometry x="640.0000000000002" y="520" width="40" height="20" as="geometry" />
        </mxCell>
        <mxCell id="scet_bAQvePoZMAyS06o-86" value="&lt;span style=&quot;font-size: 13px;&quot;&gt;counter(1)&lt;/span&gt;" style="text;html=1;align=center;verticalAlign=middle;whiteSpace=wrap;rounded=0;container=0;" vertex="1" parent="1">
          <mxGeometry x="827.0000000000002" y="420" width="40" height="20" as="geometry" />
        </mxCell>
        <mxCell id="scet_bAQvePoZMAyS06o-97" value="" style="endArrow=none;html=1;rounded=0;exitX=0;exitY=0.75;exitDx=0;exitDy=0;exitPerimeter=0;" edge="1" parent="1" source="scet_bAQvePoZMAyS06o-36">
          <mxGeometry width="50" height="50" relative="1" as="geometry">
            <mxPoint x="900" y="720" as="sourcePoint" />
            <mxPoint x="900.88" y="440" as="targetPoint" />
            <Array as="points">
              <mxPoint x="901" y="730" />
            </Array>
          </mxGeometry>
        </mxCell>
        <mxCell id="scet_bAQvePoZMAyS06o-98" value="" style="shape=waypoint;sketch=0;fillStyle=solid;size=6;pointerEvents=1;points=[];fillColor=#60a917;resizable=0;rotatable=0;perimeter=centerPerimeter;snapToPoint=1;strokeColor=#2D7600;rotation=-90;container=0;fontColor=#ffffff;" vertex="1" parent="1">
          <mxGeometry x="641" y="440.25" width="20" height="20" as="geometry" />
        </mxCell>
        <mxCell id="scet_bAQvePoZMAyS06o-99" value="" style="endArrow=none;html=1;rounded=0;fillColor=#0050ef;strokeColor=#001DBC;entryX=1;entryY=0.25;entryDx=0;entryDy=0;exitX=0.414;exitY=0.976;exitDx=0;exitDy=0;exitPerimeter=0;" edge="1" parent="1">
          <mxGeometry width="50" height="50" relative="1" as="geometry">
            <mxPoint x="929" y="440" as="sourcePoint" />
            <mxPoint x="813.0000000000002" y="440" as="targetPoint" />
          </mxGeometry>
        </mxCell>
        <mxCell id="scet_bAQvePoZMAyS06o-100" value="" style="shape=waypoint;sketch=0;fillStyle=solid;size=6;pointerEvents=1;points=[];fillColor=#0050ef;resizable=0;rotatable=0;perimeter=centerPerimeter;snapToPoint=1;strokeColor=#001DBC;rotation=-90;container=0;fontColor=#ffffff;" vertex="1" parent="1">
          <mxGeometry x="920" y="430" width="20" height="20" as="geometry" />
        </mxCell>
        <mxCell id="scet_bAQvePoZMAyS06o-109" value="&lt;font style=&quot;font-size: 15px;&quot;&gt;Flip_Flop_D&lt;/font&gt;" style="rounded=0;whiteSpace=wrap;html=1;container=0;" vertex="1" parent="1">
          <mxGeometry x="1193.0000000000002" y="400" width="120" height="160" as="geometry" />
        </mxCell>
        <mxCell id="scet_bAQvePoZMAyS06o-112" value="&lt;font style=&quot;font-size: 13px;&quot;&gt;input&lt;/font&gt;" style="text;html=1;align=center;verticalAlign=middle;whiteSpace=wrap;rounded=0;container=0;" vertex="1" parent="1">
          <mxGeometry x="1140.0000000000002" y="520" width="40" height="20" as="geometry" />
        </mxCell>
        <mxCell id="scet_bAQvePoZMAyS06o-113" value="&lt;font style=&quot;font-size: 13px;&quot;&gt;counter (2)&lt;/font&gt;" style="text;html=1;align=center;verticalAlign=middle;whiteSpace=wrap;rounded=0;container=0;" vertex="1" parent="1">
          <mxGeometry x="1313" y="421.25" width="67" height="20" as="geometry" />
        </mxCell>
        <mxCell id="scet_bAQvePoZMAyS06o-124" value="" style="shape=waypoint;sketch=0;fillStyle=solid;size=6;pointerEvents=1;points=[];fillColor=#60a917;resizable=0;rotatable=0;perimeter=centerPerimeter;snapToPoint=1;strokeColor=#2D7600;rotation=-90;container=0;fontColor=#ffffff;" vertex="1" parent="1">
          <mxGeometry x="1141" y="440.25" width="20" height="20" as="geometry" />
        </mxCell>
        <mxCell id="scet_bAQvePoZMAyS06o-125" value="" style="endArrow=none;html=1;rounded=0;fillColor=#60a917;strokeColor=#2D7600;" edge="1" parent="1" source="scet_bAQvePoZMAyS06o-124">
          <mxGeometry width="50" height="50" relative="1" as="geometry">
            <mxPoint x="1169" y="450.25" as="sourcePoint" />
            <mxPoint x="1199" y="450.25" as="targetPoint" />
          </mxGeometry>
        </mxCell>
        <mxCell id="scet_bAQvePoZMAyS06o-126" value="" style="endArrow=none;html=1;rounded=0;fillColor=#e1d5e7;strokeColor=#9673a6;entryX=1;entryY=0.25;entryDx=0;entryDy=0;exitX=0.414;exitY=0.976;exitDx=0;exitDy=0;exitPerimeter=0;" edge="1" parent="1">
          <mxGeometry width="50" height="50" relative="1" as="geometry">
            <mxPoint x="1429" y="440" as="sourcePoint" />
            <mxPoint x="1313.0000000000002" y="440" as="targetPoint" />
          </mxGeometry>
        </mxCell>
        <mxCell id="scet_bAQvePoZMAyS06o-127" value="" style="shape=waypoint;sketch=0;fillStyle=solid;size=6;pointerEvents=1;points=[];fillColor=#e1d5e7;resizable=0;rotatable=0;perimeter=centerPerimeter;snapToPoint=1;strokeColor=#9673a6;rotation=-90;container=0;" vertex="1" parent="1">
          <mxGeometry x="1420" y="430" width="20" height="20" as="geometry" />
        </mxCell>
        <mxCell id="scet_bAQvePoZMAyS06o-128" value="" style="endArrow=none;html=1;rounded=0;entryX=0.002;entryY=0.877;entryDx=0;entryDy=0;entryPerimeter=0;exitX=1;exitY=0.5;exitDx=0;exitDy=0;exitPerimeter=0;" edge="1" parent="1" source="scet_bAQvePoZMAyS06o-37" target="scet_bAQvePoZMAyS06o-137">
          <mxGeometry width="50" height="50" relative="1" as="geometry">
            <mxPoint x="1140" y="620" as="sourcePoint" />
            <mxPoint x="1230" y="510" as="targetPoint" />
            <Array as="points">
              <mxPoint x="1138" y="540" />
            </Array>
          </mxGeometry>
        </mxCell>
        <mxCell id="scet_bAQvePoZMAyS06o-150" value="" style="endArrow=none;html=1;rounded=0;fillColor=#0050ef;strokeColor=#001DBC;entryX=1;entryY=0.25;entryDx=0;entryDy=0;exitX=0.414;exitY=0.976;exitDx=0;exitDy=0;exitPerimeter=0;" edge="1" parent="1">
          <mxGeometry width="50" height="50" relative="1" as="geometry">
            <mxPoint x="1429" y="440" as="sourcePoint" />
            <mxPoint x="1313.0000000000002" y="440" as="targetPoint" />
          </mxGeometry>
        </mxCell>
        <mxCell id="scet_bAQvePoZMAyS06o-151" value="" style="shape=waypoint;sketch=0;fillStyle=solid;size=6;pointerEvents=1;points=[];fillColor=#0050ef;resizable=0;rotatable=0;perimeter=centerPerimeter;snapToPoint=1;strokeColor=#001DBC;rotation=-90;container=0;fontColor=#ffffff;" vertex="1" parent="1">
          <mxGeometry x="1420" y="430" width="20" height="20" as="geometry" />
        </mxCell>
        <mxCell id="scet_bAQvePoZMAyS06o-204" value="" style="endArrow=none;html=1;rounded=0;exitX=0.014;exitY=0.737;exitDx=0;exitDy=0;exitPerimeter=0;" edge="1" parent="1" source="scet_bAQvePoZMAyS06o-37">
          <mxGeometry width="50" height="50" relative="1" as="geometry">
            <mxPoint x="1230" y="580" as="sourcePoint" />
            <mxPoint x="1400" y="440" as="targetPoint" />
            <Array as="points">
              <mxPoint x="1400" y="730" />
            </Array>
          </mxGeometry>
        </mxCell>
        <mxCell id="scet_bAQvePoZMAyS06o-288" value="" style="group" vertex="1" connectable="0" parent="1">
          <mxGeometry x="141" y="440.25" width="58" height="20" as="geometry" />
        </mxCell>
        <mxCell id="scet_bAQvePoZMAyS06o-33" value="" style="shape=waypoint;sketch=0;fillStyle=solid;size=6;pointerEvents=1;points=[];fillColor=#60a917;resizable=0;rotatable=0;perimeter=centerPerimeter;snapToPoint=1;strokeColor=#2D7600;rotation=-90;container=0;fontColor=#ffffff;" vertex="1" parent="scet_bAQvePoZMAyS06o-288">
          <mxGeometry width="20" height="20" as="geometry" />
        </mxCell>
        <mxCell id="scet_bAQvePoZMAyS06o-34" value="" style="endArrow=none;html=1;rounded=0;fillColor=#60a917;strokeColor=#2D7600;" edge="1" parent="scet_bAQvePoZMAyS06o-288" source="scet_bAQvePoZMAyS06o-33">
          <mxGeometry width="50" height="50" relative="1" as="geometry">
            <mxPoint x="28" y="10" as="sourcePoint" />
            <mxPoint x="58" y="10" as="targetPoint" />
          </mxGeometry>
        </mxCell>
        <mxCell id="scet_bAQvePoZMAyS06o-289" value="" style="group" vertex="1" connectable="0" parent="1">
          <mxGeometry x="140" y="470" width="58" height="20" as="geometry" />
        </mxCell>
        <mxCell id="scet_bAQvePoZMAyS06o-290" value="" style="shape=waypoint;sketch=0;fillStyle=solid;size=6;pointerEvents=1;points=[];fillColor=#ffcd28;resizable=0;rotatable=0;perimeter=centerPerimeter;snapToPoint=1;strokeColor=#d79b00;rotation=-90;container=0;gradientColor=#ffa500;" vertex="1" parent="scet_bAQvePoZMAyS06o-289">
          <mxGeometry width="20" height="20" as="geometry" />
        </mxCell>
        <mxCell id="scet_bAQvePoZMAyS06o-291" value="" style="endArrow=none;html=1;rounded=0;fillColor=#ffcd28;strokeColor=#d79b00;gradientColor=#ffa500;" edge="1" parent="scet_bAQvePoZMAyS06o-289" source="scet_bAQvePoZMAyS06o-290">
          <mxGeometry width="50" height="50" relative="1" as="geometry">
            <mxPoint x="28" y="10" as="sourcePoint" />
            <mxPoint x="58" y="10" as="targetPoint" />
          </mxGeometry>
        </mxCell>
        <mxCell id="scet_bAQvePoZMAyS06o-54" value="&lt;font style=&quot;font-size: 15px;&quot;&gt;Flip_Flop_D&lt;/font&gt;&lt;div&gt;&lt;font style=&quot;font-size: 15px;&quot;&gt;0&lt;/font&gt;&lt;/div&gt;" style="rounded=0;whiteSpace=wrap;html=1;container=0;" vertex="1" parent="1">
          <mxGeometry x="193.00000000000023" y="400" width="120" height="160" as="geometry" />
        </mxCell>
        <mxCell id="scet_bAQvePoZMAyS06o-293" value="" style="group" vertex="1" connectable="0" parent="1">
          <mxGeometry x="641" y="470" width="58" height="20" as="geometry" />
        </mxCell>
        <mxCell id="scet_bAQvePoZMAyS06o-294" value="" style="shape=waypoint;sketch=0;fillStyle=solid;size=6;pointerEvents=1;points=[];fillColor=#ffcd28;resizable=0;rotatable=0;perimeter=centerPerimeter;snapToPoint=1;strokeColor=#d79b00;rotation=-90;container=0;gradientColor=#ffa500;" vertex="1" parent="scet_bAQvePoZMAyS06o-293">
          <mxGeometry width="20" height="20" as="geometry" />
        </mxCell>
        <mxCell id="scet_bAQvePoZMAyS06o-295" value="" style="endArrow=none;html=1;rounded=0;fillColor=#ffcd28;strokeColor=#d79b00;gradientColor=#ffa500;" edge="1" parent="scet_bAQvePoZMAyS06o-293" source="scet_bAQvePoZMAyS06o-294">
          <mxGeometry width="50" height="50" relative="1" as="geometry">
            <mxPoint x="28" y="10" as="sourcePoint" />
            <mxPoint x="58" y="10" as="targetPoint" />
          </mxGeometry>
        </mxCell>
        <mxCell id="scet_bAQvePoZMAyS06o-84" value="&lt;font style=&quot;font-size: 15px;&quot;&gt;Flip_Flop_D&lt;/font&gt;&lt;div&gt;&lt;font style=&quot;font-size: 15px;&quot;&gt;1&lt;/font&gt;&lt;/div&gt;" style="rounded=0;whiteSpace=wrap;html=1;container=0;" vertex="1" parent="1">
          <mxGeometry x="693.0000000000002" y="400" width="120" height="160" as="geometry" />
        </mxCell>
        <mxCell id="scet_bAQvePoZMAyS06o-296" value="" style="group" vertex="1" connectable="0" parent="1">
          <mxGeometry x="1143" y="480" width="58" height="20" as="geometry" />
        </mxCell>
        <mxCell id="scet_bAQvePoZMAyS06o-297" value="" style="shape=waypoint;sketch=0;fillStyle=solid;size=6;pointerEvents=1;points=[];fillColor=#ffcd28;resizable=0;rotatable=0;perimeter=centerPerimeter;snapToPoint=1;strokeColor=#d79b00;rotation=-90;container=0;gradientColor=#ffa500;" vertex="1" parent="scet_bAQvePoZMAyS06o-296">
          <mxGeometry width="20" height="20" as="geometry" />
        </mxCell>
        <mxCell id="scet_bAQvePoZMAyS06o-298" value="" style="endArrow=none;html=1;rounded=0;fillColor=#ffcd28;strokeColor=#d79b00;gradientColor=#ffa500;" edge="1" parent="scet_bAQvePoZMAyS06o-296" source="scet_bAQvePoZMAyS06o-297">
          <mxGeometry width="50" height="50" relative="1" as="geometry">
            <mxPoint x="28" y="10" as="sourcePoint" />
            <mxPoint x="58" y="10" as="targetPoint" />
          </mxGeometry>
        </mxCell>
        <mxCell id="scet_bAQvePoZMAyS06o-137" value="&lt;font style=&quot;font-size: 15px;&quot;&gt;Flip_Flop_D&lt;/font&gt;&lt;div&gt;&lt;font style=&quot;font-size: 15px;&quot;&gt;2&lt;/font&gt;&lt;/div&gt;" style="rounded=0;whiteSpace=wrap;html=1;container=0;" vertex="1" parent="1">
          <mxGeometry x="1193.0000000000002" y="400" width="120" height="160" as="geometry" />
        </mxCell>
      </root>
    </mxGraphModel>
  </diagram>
</mxfile>
